<svg width="91" height="47" viewBox="0 0 91 47" fill="none" xmlns="http://www.w3.org/2000/svg">
<g clip-path="url(#clip0_520_2)">
<path d="M46.6554 18.7312L50.0323 18.5129C50.1094 19.0651 50.2506 19.476 50.4817 19.7713C50.8541 20.2335 51.3677 20.4646 52.0482 20.4646C52.549 20.4646 52.947 20.3491 53.2167 20.1051C53.4735 19.9125 53.6275 19.6044 53.6275 19.2833C53.6275 18.9752 53.4863 18.6799 53.2423 18.4873C52.9855 18.2561 52.3821 18.025 51.4319 17.8196C49.8782 17.4729 48.7612 17.0107 48.1063 16.42C47.4515 15.8679 47.0791 15.059 47.1048 14.1987C47.1048 13.608 47.2845 13.0174 47.6184 12.5295C48.0036 11.9773 48.53 11.5408 49.1592 11.2968C49.8397 11.0015 50.7899 10.8474 51.984 10.8474C53.4478 10.8474 54.5649 11.1171 55.3353 11.6692C56.1057 12.2085 56.5679 13.0816 56.7092 14.2757L53.3707 14.4683C53.2809 13.9547 53.1011 13.5824 52.8058 13.3384C52.5105 13.0944 52.1253 12.9789 51.6245 12.9789C51.2136 12.9789 50.9054 13.0687 50.7 13.2357C50.5074 13.3897 50.379 13.6209 50.3918 13.8777C50.3918 14.0703 50.4946 14.25 50.6486 14.3656C50.8156 14.5197 51.2136 14.6609 51.8428 14.7893C53.3964 15.1232 54.5007 15.457 55.1812 15.8037C55.8617 16.1504 56.3496 16.5741 56.645 17.0749C56.9531 17.5885 57.1072 18.1791 57.0944 18.7826C57.0944 19.5016 56.8889 20.2207 56.478 20.8242C56.0543 21.4533 55.4637 21.9412 54.7703 22.2366C54.0384 22.5576 53.1139 22.7245 52.0097 22.7245C50.058 22.7245 48.7098 22.3521 47.9522 21.5946C47.1947 20.837 46.7453 19.8868 46.6554 18.7312ZM10.8187 22.5319V11.0529H16.738C17.8294 11.0529 18.6768 11.1427 19.2546 11.3353C19.8196 11.5151 20.3204 11.8875 20.6542 12.3882C21.0266 12.9403 21.2063 13.5824 21.1935 14.25C21.232 15.38 20.6542 16.4585 19.6655 17.0235C19.2803 17.2418 18.8566 17.3959 18.42 17.4729C18.741 17.5628 19.062 17.7169 19.3445 17.8966C19.5628 18.0764 19.7426 18.2818 19.9095 18.5001C20.1021 18.7184 20.269 18.9623 20.4102 19.2191L22.1308 22.5447H18.099L16.1987 19.0137C15.9547 18.5643 15.7493 18.269 15.5567 18.1277C15.2999 17.948 14.9917 17.8581 14.6836 17.8581H14.3754V22.5191H10.8187V22.5319ZM14.3754 15.701H15.8777C16.1987 15.6753 16.5068 15.6239 16.815 15.5469C17.0461 15.5084 17.2516 15.38 17.3928 15.1874C17.7395 14.7251 17.6881 14.0703 17.2644 13.6722C17.0333 13.4796 16.5839 13.3769 15.9419 13.3769H14.3754V15.701ZM10.0098 32.3674L13.3867 32.1491C13.4637 32.7012 13.605 33.1121 13.8361 33.4074C14.1956 33.8697 14.7221 34.1136 15.4026 34.1136C15.9034 34.1136 16.3014 33.9981 16.5711 33.7541C16.8279 33.5487 16.9819 33.2534 16.9819 32.9324C16.9819 32.6242 16.8407 32.3289 16.5967 32.1363C16.3399 31.9052 15.7364 31.674 14.7734 31.4686C13.2198 31.1219 12.1027 30.6597 11.4479 30.069C10.793 29.5169 10.4206 28.708 10.4463 27.8477C10.4463 27.257 10.6261 26.6664 10.9599 26.1785C11.3451 25.6264 11.8716 25.1898 12.5007 24.9458C13.1813 24.6505 14.1314 24.4964 15.3256 24.4964C16.7893 24.4964 17.9064 24.7661 18.6768 25.3182C19.4472 25.8703 19.8966 26.7306 20.0379 27.9247L16.6995 28.1173C16.6096 27.6037 16.4298 27.2314 16.1345 26.9874C15.852 26.7434 15.454 26.6279 14.9532 26.6407C14.5423 26.6407 14.2342 26.7306 14.0287 26.9104C13.8233 27.0644 13.7077 27.2956 13.7206 27.5524C13.7206 27.745 13.8233 27.9247 13.9774 28.0403C14.1443 28.1944 14.5423 28.3356 15.1715 28.464C16.7251 28.7979 17.8294 29.1317 18.5099 29.4784C19.1904 29.8251 19.6784 30.2488 19.9737 30.7495C20.2818 31.2631 20.4359 31.8538 20.4359 32.4444C20.4359 33.1635 20.2176 33.8697 19.8196 34.4732C19.3959 35.1023 18.8052 35.5903 18.1119 35.8856C17.38 36.2066 16.4555 36.3735 15.3512 36.3735C13.3995 36.3735 12.0513 36.0011 11.2938 35.2436C10.5362 34.4732 10.1125 33.523 10.0098 32.3674Z" fill="black"/>
<path d="M27.087 31.4685L30.1943 32.4058C30.0274 33.1891 29.6807 33.9338 29.2056 34.5886C28.7691 35.1665 28.1913 35.6159 27.5364 35.9112C26.8687 36.2065 26.0213 36.3606 24.9941 36.3606C23.7486 36.3606 22.7214 36.1808 21.9381 35.8213C21.1421 35.4618 20.4615 34.8198 19.8837 33.9081C19.3059 32.9965 19.0234 31.828 19.0234 30.4028C19.0234 28.5024 19.5242 27.0387 20.5386 26.0243C21.5529 25.0099 22.9782 24.4963 24.8272 24.4963C26.2781 24.4963 27.408 24.7917 28.2426 25.3695C29.0644 25.9601 29.6807 26.8589 30.0916 28.0659L26.9586 28.7592C26.8816 28.4896 26.766 28.22 26.6119 27.9888C26.4193 27.7192 26.1754 27.5138 25.88 27.3597C25.5847 27.2056 25.2509 27.1414 24.917 27.1414C24.1081 27.1414 23.4918 27.4624 23.0681 28.1172C22.7471 28.5923 22.5801 29.3499 22.5801 30.3771C22.5801 31.6483 22.7727 32.5214 23.1579 32.9965C23.5431 33.4716 24.0824 33.7027 24.7886 33.7027C25.4692 33.7027 25.9828 33.5101 26.3294 33.1377C26.6761 32.7397 26.9329 32.1875 27.087 31.4685ZM34.3417 24.6889H37.8855V28.7079H41.7632V24.6889H45.3328V36.168H41.7632V31.5199H37.8855V36.168H34.3417V24.6889Z" fill="black"/>
<path d="M44.8447 30.4286C44.8447 28.554 45.3712 27.0902 46.4112 26.0501C47.4513 25.0101 48.915 24.4836 50.7768 24.4836C52.69 24.4836 54.1538 24.9972 55.1938 26.0245C56.2339 27.0517 56.7475 28.4897 56.7475 30.3387C56.7475 31.6869 56.5164 32.7783 56.067 33.6386C55.6304 34.4861 54.9499 35.1794 54.1153 35.6417C53.255 36.1168 52.1893 36.3607 50.9181 36.3607C49.6212 36.3607 48.5555 36.1553 47.7081 35.7444C46.8349 35.3078 46.1159 34.6273 45.6408 33.7927C45.1144 32.8939 44.8447 31.7768 44.8447 30.4286ZM48.3886 30.4414C48.3886 31.5971 48.6069 32.4317 49.0306 32.9453C49.4543 33.446 50.045 33.7028 50.7897 33.7028C51.5473 33.7028 52.1379 33.4589 52.5616 32.9581C52.9853 32.4573 53.1908 31.5714 53.1908 30.2874C53.1908 29.2088 52.9725 28.4127 52.5359 27.9248C52.0994 27.424 51.5087 27.1801 50.764 27.1801C50.1092 27.1544 49.48 27.4369 49.0434 27.9376C48.6069 28.4384 48.3886 29.273 48.3886 30.4414ZM60.3812 30.4286C60.3812 28.554 60.9077 27.0902 61.9477 26.0501C62.9878 25.0101 64.4515 24.4836 66.3134 24.4836C68.2265 24.4836 69.7031 24.9972 70.7303 26.0245C71.7575 27.0517 72.284 28.4897 72.284 30.3387C72.284 31.6869 72.0529 32.7783 71.6035 33.6386C71.1669 34.4861 70.4864 35.1794 69.6518 35.6417C68.7915 36.1168 67.7258 36.3607 66.4546 36.3607C65.1577 36.3607 64.092 36.1553 63.2446 35.7444C62.3714 35.3078 61.6524 34.6273 61.1773 33.7927C60.6509 32.8939 60.3812 31.7768 60.3812 30.4286ZM63.9251 30.4414C63.9251 31.5971 64.1434 32.4317 64.5671 32.9453C64.9908 33.446 65.5815 33.7028 66.3262 33.7028C67.0838 33.7028 67.6744 33.4589 68.0981 32.9581C68.5218 32.4573 68.7273 31.5714 68.7273 30.2874C68.7273 29.2088 68.509 28.4127 68.0724 27.9248C67.6359 27.424 67.0452 27.1801 66.3005 27.1801C65.6457 27.1544 65.0037 27.4369 64.5799 27.9376C64.1434 28.4384 63.9251 29.273 63.9251 30.4414Z" fill="black"/>
<path d="M71.9123 24.689H75.4561V33.3432H80.9902V36.168H71.8994V24.689H71.9123Z" fill="black"/>
<path d="M68.006 24.0265C71.574 21.3378 72.6742 16.78 70.4635 13.8463C68.2527 10.9127 63.5682 10.7142 60.0003 13.4029C56.4324 16.0916 55.3322 20.6494 57.5429 23.583C59.7536 26.5166 64.4381 26.7152 68.006 24.0265Z" fill="white"/>
<mask id="mask0_520_2" style="mask-type:luminance" maskUnits="userSpaceOnUse" x="56" y="11" width="16" height="15">
<path d="M68.006 24.0265C71.574 21.3378 72.6742 16.78 70.4635 13.8463C68.2527 10.9127 63.5682 10.7142 60.0003 13.4029C56.4324 16.0916 55.3322 20.6494 57.5429 23.583C59.7536 26.5166 64.4381 26.7152 68.006 24.0265Z" fill="white"/>
</mask>
<g mask="url(#mask0_520_2)">
<path d="M48.4434 17.2595L66.8808 3.36541L79.639 20.2954L61.2015 34.1896L48.4434 17.2595Z" fill="white"/>
<mask id="mask1_520_2" style="mask-type:luminance" maskUnits="userSpaceOnUse" x="48" y="3" width="32" height="32">
<path d="M48.4434 17.2593L66.8808 3.36517L79.639 20.2952L61.2015 34.1893L48.4434 17.2593Z" fill="white"/>
</mask>
<g mask="url(#mask1_520_2)">
<path d="M68.006 24.0262C71.574 21.3375 72.6742 16.7797 70.4635 13.8461C68.2527 10.9125 63.5682 10.7139 60.0003 13.4026C56.4324 16.0914 55.3322 20.6492 57.5429 23.5828C59.7536 26.5164 64.4381 26.7149 68.006 24.0262Z" fill="white"/>
<mask id="mask2_520_2" style="mask-type:luminance" maskUnits="userSpaceOnUse" x="56" y="11" width="16" height="15">
<path d="M68.0051 24.0265C71.573 21.3378 72.6732 16.78 70.4625 13.8463C68.2518 10.9127 63.5673 10.7142 59.9993 13.4029C56.4314 16.0916 55.3312 20.6494 57.5419 23.583C59.7526 26.5166 64.4372 26.7152 68.0051 24.0265Z" fill="white"/>
</mask>
<g mask="url(#mask2_520_2)">
<path d="M53.5771 18.3899L66.4876 8.66115L74.5009 19.2951L61.5904 29.0239L53.5771 18.3899Z" fill="white"/>
<mask id="mask3_520_2" style="mask-type:luminance" maskUnits="userSpaceOnUse" x="53" y="8" width="22" height="22">
<path d="M53.5771 18.3896L66.4876 8.6609L74.5009 19.2949L61.5904 29.0236L53.5771 18.3896Z" fill="white"/>
</mask>
<g mask="url(#mask3_520_2)">
<path d="M68.006 24.026C71.574 21.3373 72.6742 16.7795 70.4635 13.8458C68.2527 10.9122 63.5682 10.7137 60.0003 13.4024C56.4324 16.0911 55.3322 20.6489 57.5429 23.5825C59.7536 26.5162 64.4381 26.7147 68.006 24.026Z" fill="white" stroke="black" stroke-width="0.513604" stroke-miterlimit="10"/>
</g>
<mask id="mask4_520_2" style="mask-type:luminance" maskUnits="userSpaceOnUse" x="55" y="9" width="18" height="20">
<path d="M55.417 24.7769L59.8729 9.23741L72.6722 12.9076L68.2164 28.447L55.417 24.7769Z" fill="white"/>
</mask>
<g mask="url(#mask4_520_2)">
<path d="M53.5771 18.3901L66.4876 8.66139L74.5009 19.2954L61.5904 29.0241L53.5771 18.3901Z" stroke="black" stroke-width="0.513604" stroke-miterlimit="10"/>
</g>
<path d="M68.006 24.026C71.574 21.3373 72.6742 16.7795 70.4635 13.8458C68.2527 10.9122 63.5682 10.7137 60.0003 13.4024C56.4324 16.0911 55.3322 20.6489 57.5429 23.5825C59.7536 26.5162 64.4381 26.7147 68.006 24.026Z" stroke="black" stroke-width="0.513604" stroke-miterlimit="10"/>
<path d="M53.5771 18.3899L66.4876 8.66115L74.5009 19.2951L61.5904 29.0239L53.5771 18.3899Z" fill="white"/>
<mask id="mask5_520_2" style="mask-type:luminance" maskUnits="userSpaceOnUse" x="53" y="8" width="22" height="22">
<path d="M53.5771 18.3896L66.4876 8.6609L74.5009 19.2949L61.5904 29.0236L53.5771 18.3896Z" fill="white"/>
</mask>
<g mask="url(#mask5_520_2)">
<path d="M68.006 24.026C71.574 21.3373 72.6742 16.7795 70.4635 13.8458C68.2527 10.9122 63.5682 10.7137 60.0003 13.4024C56.4324 16.0911 55.3322 20.6489 57.5429 23.5825C59.7536 26.5162 64.4381 26.7147 68.006 24.026Z" fill="white" stroke="black" stroke-width="0.513604" stroke-miterlimit="10"/>
</g>
<mask id="mask6_520_2" style="mask-type:luminance" maskUnits="userSpaceOnUse" x="55" y="9" width="18" height="20">
<path d="M55.417 24.7769L59.8729 9.23741L72.6722 12.9076L68.2164 28.447L55.417 24.7769Z" fill="white"/>
</mask>
<g mask="url(#mask6_520_2)">
<path d="M53.5771 18.3901L66.4876 8.66139L74.5009 19.2954L61.5904 29.0241L53.5771 18.3901Z" stroke="black" stroke-width="0.513604" stroke-miterlimit="10"/>
</g>
<path d="M48.4434 17.2595L66.8808 3.36541L79.639 20.2954L61.2015 34.1896L48.4434 17.2595Z" stroke="black" stroke-width="0.513604" stroke-miterlimit="10"/>
</g>
<path d="M68.006 24.0262C71.574 21.3375 72.6742 16.7797 70.4635 13.8461C68.2527 10.9125 63.5682 10.7139 60.0003 13.4026C56.4324 16.0914 55.3322 20.6492 57.5429 23.5828C59.7536 26.5164 64.4381 26.7149 68.006 24.0262Z" stroke="black" stroke-width="0.513604" stroke-miterlimit="10"/>
<path d="M60.395 17.8706L61.679 16.9718L63.2583 19.2188C63.528 19.5783 63.7334 19.9635 63.8875 20.3873C63.9774 20.7083 63.9517 21.0549 63.8233 21.3631C63.6564 21.7483 63.3867 22.0693 63.0272 22.3004C62.6035 22.5958 62.244 22.7627 61.9358 22.814C61.6405 22.8654 61.3323 22.814 61.0498 22.6856C60.7417 22.5316 60.472 22.3133 60.2666 22.0308L61.3708 21.0036C61.4607 21.1448 61.5763 21.2732 61.7047 21.3759C61.7946 21.4401 61.8973 21.4787 62.0129 21.4787C62.1027 21.4787 62.1926 21.4401 62.2568 21.3888C62.3852 21.3117 62.4751 21.1577 62.4623 21.0036C62.4237 20.7853 62.3339 20.567 62.1926 20.4001L60.395 17.8706ZM64.247 19.2959L65.4155 18.3714C65.5439 18.5254 65.7108 18.641 65.8906 18.7052C66.1474 18.7823 66.417 18.7309 66.6353 18.564C66.7894 18.4612 66.9178 18.32 66.9691 18.1402C67.0462 17.9091 66.9178 17.6523 66.6866 17.5753C66.6481 17.5624 66.6096 17.5496 66.5711 17.5496C66.417 17.5368 66.1474 17.601 65.7493 17.7679C65.0945 18.0375 64.5809 18.1402 64.1957 18.1017C63.8233 18.0632 63.4766 17.8706 63.2712 17.5496C63.1171 17.3313 63.0401 17.0745 63.0272 16.8177C63.0272 16.5224 63.1043 16.2271 63.2712 15.9831C63.5151 15.6364 63.8105 15.3411 64.17 15.11C64.7093 14.7376 65.1844 14.5579 65.5952 14.5579C66.0061 14.5579 66.3913 14.7505 66.7508 15.1485L65.5952 16.0602C65.3641 15.7648 64.9276 15.7006 64.6322 15.9318L64.5937 15.9703C64.4653 16.0473 64.3754 16.1629 64.3241 16.3041C64.2855 16.4068 64.3112 16.5224 64.3754 16.6123C64.4268 16.6765 64.5038 16.7278 64.5937 16.7278C64.6964 16.7407 64.8762 16.6893 65.133 16.5738C65.775 16.3041 66.2629 16.15 66.5968 16.0987C66.8792 16.0473 67.1746 16.073 67.4442 16.1886C67.6882 16.2913 67.8936 16.471 68.0349 16.6893C68.2146 16.9461 68.3173 17.2543 68.3302 17.5753C68.343 17.9091 68.2531 18.2301 68.0734 18.5126C67.8423 18.8593 67.5469 19.1546 67.2002 19.3857C66.494 19.8737 65.9162 20.0791 65.454 20.0021C64.9532 19.925 64.5424 19.6682 64.247 19.2959Z" fill="black"/>
</g>
</g>
</g>
<defs>
<clipPath id="clip0_520_2">
<rect width="70.98" height="26.3607" fill="white" transform="translate(10.0098 10)"/>
</clipPath>
</defs>
</svg>
